<?xml version="1.0" encoding="utf-8"?>
<!-- Generator: Adobe Illustrator 24.1.1, SVG Export Plug-In . SVG Version: 6.00 Build 0)  -->
<svg version="1.1" id="Layer_1" xmlns="http://www.w3.org/2000/svg" xmlns:xlink="http://www.w3.org/1999/xlink" x="0px" y="0px"
	 viewBox="0 0 512 512" style="enable-background:new 0 0 512 512;" xml:space="preserve">
<style type="text/css">
	.st0{fill:url(#SVGID_1_);}
	.st1{fill:#6181B6;}
	.st2{fill:#FFFFFF;}
	.st3{fill:#000004;}
</style>
<g>
	
		<radialGradient id="SVGID_1_" cx="1.2157" cy="511.8802" r="2" gradientTransform="matrix(168.0952 0 0 168.0952 -50.6483 -85875.8516)" gradientUnits="userSpaceOnUse">
		<stop  offset="0" style="stop-color:#FFFFFF"/>
		<stop  offset="0.5" style="stop-color:#4C6B97"/>
		<stop  offset="1" style="stop-color:#231F20"/>
	</radialGradient>
	<ellipse class="st0" cx="256" cy="256" rx="256" ry="134.6"/>
	<ellipse class="st1" cx="256" cy="256" rx="246" ry="124.6"/>
	<path class="st2" d="M305.8,296.4l12.2-62.8c2.8-14.2,0.4-24.8-6.8-31.4c-7-6.4-19-9.6-36.6-9.6h-21.2l6-31.2
		c0.2-1.2,0-2.4-0.8-3.4c-0.8-1-1.8-1.4-3-1.4h-29.2c-2,0-3.6,1.4-4,3.2l-13,66.6c-1.2-7.6-4-14-8.8-19.2
		c-8.6-9.8-22-14.8-40.2-14.8h-56.2c-2,0-3.6,1.4-4,3.2L74,330.8c-0.2,1.2,0,2.4,0.8,3.4s1.8,1.4,3,1.4h29.4c2,0,3.6-1.4,4-3.2
		l6.4-32.6h21.8c11.4,0,21.2-1.2,28.6-3.6c7.8-2.6,14.8-6.8,21-12.6c5-4.6,9.2-9.8,12.4-15.4l-5.2,27c-0.2,1.2,0,2.4,0.8,3.4
		s1.8,1.4,3,1.4h29.2c2,0,3.6-1.4,4-3.2l14.4-74h20c8.6,0,11,1.6,11.8,2.4c0.6,0.6,1.8,3,0.4,10.4l-11.6,59.8
		c-0.2,1.2,0,2.4,0.8,3.4s1.8,1.4,3,1.4h30C303.8,299.6,305.4,298.2,305.8,296.4z M170.6,244.4c-1.8,9.4-5.2,16.2-10.2,20
		c-5,3.8-13.2,5.8-24,5.8h-13l9.4-48.4h16.8c12.4,0,17.4,2.6,19.4,4.8C171.6,229.8,172.2,236,170.6,244.4z"/>
	<path class="st2" d="M430.6,207.2c-8.6-9.8-22-14.8-40.2-14.8h-56.6c-2,0-3.6,1.4-4,3.2l-26.2,135c-0.2,1.2,0,2.4,0.8,3.4
		c0.8,1,1.8,1.4,3,1.4h29.4c2,0,3.6-1.4,4-3.2l6.4-32.6H369c11.4,0,21.2-1.2,28.6-3.6c7.8-2.6,14.8-6.8,21-12.6
		c5.2-4.8,9.6-10.2,12.8-16c3.2-5.8,5.6-12.2,7-19.2C441.8,230.8,439.2,217.2,430.6,207.2z M400,244.4c-1.8,9.4-5.2,16.2-10.2,20
		c-5,3.8-13.2,5.8-24,5.8h-13l9.4-48.4H379c12.4,0,17.4,2.6,19.4,4.8C401.2,229.8,401.8,236,400,244.4z"/>
	<path class="st3" d="M149.6,217.8c11.2,0,18.6,2,22.4,6.2s4.6,11.2,2.6,21.2c-2,10.4-6,18-11.8,22.4c-5.8,4.4-14.6,6.6-26.4,6.6
		h-17.8l11-56.4H149.6z M78,331.4h29.4l7-35.8h25.2c11.2,0,20.2-1.2,27.4-3.6s13.6-6.2,19.6-11.8c5-4.6,9-9.6,12-15
		c3-5.4,5.2-11.4,6.4-18c3.2-16,0.8-28.4-7-37.4s-20.2-13.4-37.2-13.4h-56.6L78,331.4z"/>
	<path class="st3" d="M226.6,160.6h29.2l-7,35.8h26c16.4,0,27.6,2.8,33.8,8.6c6.2,5.8,8,15,5.6,27.8L302,295.6h-29.6l11.6-59.8
		c1.4-6.8,0.8-11.4-1.4-13.8c-2.2-2.4-7.2-3.8-14.6-3.8h-23.4l-15,77.4h-29.2L226.6,160.6z"/>
	<path class="st3" d="M379,217.8c11.2,0,18.6,2,22.4,6.2c3.8,4.2,4.6,11.2,2.6,21.2c-2,10.4-6,18-11.8,22.4
		c-5.8,4.4-14.6,6.6-26.4,6.6H348l11-56.4H379z M307.4,331.4h29.4l7-35.8H369c11.2,0,20.2-1.2,27.4-3.6c7.2-2.4,13.6-6.2,19.6-11.8
		c5-4.6,9-9.6,12-15c3-5.4,5.2-11.4,6.4-18c3.2-16,0.8-28.4-7-37.4c-7.8-9-20.2-13.4-37.2-13.4h-56.6L307.4,331.4z"/>
</g>
</svg>
